<?xml version="1.0" encoding="iso-8859-1"?>
<svg version="1.1" id="Layer_1" xmlns="http://www.w3.org/2000/svg" xmlns:xlink="http://www.w3.org/1999/xlink" 
     viewBox="0 0 512 512" xml:space="preserve">
<path style="fill:#FF0000;" d="M308.053,387.413c-3.84-2.816-8.875-5.205-14.677-6.997
    c30.037-53.675,101.547-188.501,65.365-287.403c-10.923-29.867-30.72-54.101-59.221-72.448
    c57.6,9.728,102.144,39.339,120.747,82.261C451.243,174.08,411.307,274.944,308.053,387.413z"/>
<path d="M435.883,96C410.112,36.693,341.675,0,256.939,0h-1.877C170.411,0,101.888,36.693,76.117,96
    c-34.475,79.189,8.448,188.843,120.747,309.077c0.512,1.877,1.365,3.584,2.56,5.205l18.005,41.984h-4.096
    c-4.693,0-8.533,3.84-8.533,8.533s3.84,8.533,8.533,8.533v34.133c0,4.693,3.84,8.533,8.533,8.533h68.267
    c4.693,0,8.533-3.84,8.533-8.533v-34.133c4.693,0,8.533-3.84,8.533-8.533s-3.84-8.533-8.533-8.533h-4.096l18.005-41.984
    c1.195-1.621,2.048-3.328,2.56-5.205C427.435,284.843,470.357,175.189,435.883,96z M264.533,21.163
    c39.339,17.323,65.621,43.349,78.165,77.739c34.645,94.549-39.509,229.461-66.816,277.845c-3.669-0.512-7.509-0.853-11.349-1.024
    L264.533,21.163L264.533,21.163z M91.733,102.827c18.603-42.923,63.147-72.533,120.747-82.261
    c-28.501,18.347-48.299,42.581-59.221,72.448c-36.181,98.901,35.328,233.728,65.365,287.403c-5.803,1.792-10.837,4.181-14.677,6.997
    C100.693,274.944,60.757,174.08,91.733,102.827z M247.467,21.163v354.304h-12.117c-27.819-49.493-100.352-182.784-66.048-276.565
    C181.845,64.512,208.128,38.485,247.467,21.163z M281.6,494.933h-51.2v-25.6h51.2V494.933z M275.968,452.267h-39.936l-12.544-29.184
    c9.813,2.389,21.163,3.584,32.512,3.584c11.349,0,22.699-1.195,32.512-3.584L275.968,452.267z M256,409.6
    c-23.552,0-37.888-5.376-41.899-8.533c4.011-3.157,18.347-8.533,41.899-8.533c23.552,0,37.888,5.376,41.899,8.533
    C293.888,404.224,279.552,409.6,256,409.6z M308.053,387.413c-3.84-2.816-8.875-5.205-14.677-6.997
    c30.037-53.675,101.547-188.501,65.365-287.403c-10.923-29.867-30.72-54.101-59.221-72.448
    c57.6,9.728,102.144,39.339,120.747,82.261C451.243,174.08,411.307,274.944,308.053,387.413z"/>
<path style="fill:#FFFFFF;" d="M288.512,423.083l-12.544,29.184h-39.936l-12.544-29.184c9.813,2.389,21.163,3.584,32.512,3.584
    C267.349,426.667,278.699,425.472,288.512,423.083z"/>
<path style="fill:#FFC107;" d="M297.899,401.067c-4.011,3.157-18.347,8.533-41.899,8.533c-23.552,0-37.888-5.376-41.899-8.533
    c4.011-3.157,18.347-8.533,41.899-8.533C279.552,392.533,293.888,397.909,297.899,401.067z"/>
<path style="fill:#FFFFFF;" d="M275.883,376.747c-3.669-0.512-7.509-0.853-11.349-1.024V21.163
    c39.339,17.323,65.621,43.349,78.165,77.739C377.344,193.451,303.189,328.363,275.883,376.747z"/>
<path style="fill:#FF0000;" d="M247.467,21.163v354.304h-12.117c-27.819-49.493-100.352-182.784-66.048-276.565
    C181.845,64.512,208.128,38.485,247.467,21.163z"/>
<path style="fill:#FFFFFF;" d="M218.624,380.416c-5.803,1.792-10.837,4.181-14.677,6.997
    C100.693,274.944,60.757,174.08,91.733,102.827c18.603-42.923,63.147-72.533,120.747-82.261
    c-28.501,18.347-48.299,42.581-59.221,72.448C117.077,191.915,188.587,326.741,218.624,380.416z"/>
<rect x="230.4" y="469.333" style="fill:#8D6E63;" width="42.667" height="17.067"/>
<polygon style="fill:#6D4C41;" points="273.067,469.333 273.067,486.4 230.4,486.4 230.4,494.933 281.6,494.933 281.6,469.333 "/>
<path style="fill:#CC0000;" d="M420.267,102.827C401.664,59.904,357.12,30.293,299.52,20.565c3.934,2.534,7.663,5.205,11.264,7.953
    c41.839,13.875,73.617,39.774,88.585,74.308c30.327,69.769-7.492,167.953-105.993,277.589c5.803,1.792,10.837,4.181,14.677,6.997
    C411.307,274.944,451.243,174.08,420.267,102.827z"/>
</svg>